<svg xmlns="http://www.w3.org/2000/svg"  xmlns:xlink="http://www.w3.org/1999/xlink" ><polygon points="0,200 0,100 1,99 2,98 3,97 4,98 5,97 6,98 7,97 8,96 9,97 10,98 11,97 12,96 13,97 14,96 15,95 16,96 17,95 18,94 19,95 20,96 21,95 22,96 23,95 24,96 25,95 26,94 27,93 28,94 29,95 30,96 31,97 32,98 33,99 34,98 35,99 36,98 37,99 38,100 39,101 40,102 41,101 42,102 43,103 44,104 45,103 46,104 47,103 48,102 49,101 50,100 51,101 52,102 53,101 54,102 55,103 56,102 57,103 58,104 59,103 60,102 61,101 62,100 63,101 64,102 65,101 66,102 67,103 68,104 69,103 70,104 71,103 72,102 73,101 74,100 75,101 76,100 77,99 78,98 79,99 80,100 81,101 82,102 83,101 84,100 85,101 86,102 87,101 88,102 89,101 90,100 91,101 92,100 93,101 94,102 95,103 96,102 97,103 98,102 99,101 100,100 101,99 102,98 103,97 104,96 105,97 106,96 107,97 108,96 109,97 110,98 111,99 112,98 113,99 114,100 115,99 116,100 117,99 118,100 119,99 120,98 121,97 122,96 123,97 124,96 125,97 126,96 127,95 128,94 129,95 130,94 131,95 132,96 133,97 134,96 135,97 136,98 137,99 138,100 139,99 140,100 141,99 142,100 143,101 144,100 145,101 146,100 147,101 148,102 149,101 150,102 151,101 152,102 153,103 154,104 155,105 156,104 157,103 158,104 159,103 160,102 161,103 162,104 163,105 164,104 165,103 166,104 167,103 168,102 169,103 170,102 171,101 172,102 173,101 174,100 175,101 176,102 177,101 178,102 179,103 180,102 181,103 182,102 183,103 184,104 185,105 186,106 187,105 188,104 189,105 190,104 191,105 192,106 193,107 194,108 195,107 196,108 197,107 198,106 199,107 200,108 201,107 202,106 203,107 204,108 205,109 206,108 207,109 208,110 209,109 210,110 211,111 212,112 213,111 214,110 215,109 216,108 217,107 218,108 219,107 220,106 221,107 222,106 223,105 224,106 225,107 226,106 227,105 228,106 229,107 230,106 231,105 232,104 233,103 234,104 235,103 236,104 237,105 238,104 239,105 240,106 241,105 242,104 243,103 244,102 245,103 246,104 247,105 248,106 249,107 250,106 251,107 252,106 253,107 254,108 255,107 256,106 257,105 258,106 259,105 260,104 261,105 262,106 263,107 264,106 265,105 266,104 267,103 268,102 269,103 270,104 271,105 272,104 273,105 274,104 275,103 276,104 277,103 278,102 279,101 280,102 281,103 282,102 283,103 284,102 285,101 286,100 287,101 288,102 289,103 290,104 291,105 292,106 293,107 294,108 295,107 296,106 297,105 298,104 299,105 300,106 301,105 302,106 303,107 304,106 305,107 306,108 307,107 308,108 309,107 310,106 311,105 312,104 313,105 314,106 315,107 316,108 317,109 318,108 319,109 320,110 321,109 322,108 323,109 324,110 325,111 326,112 327,113 328,114 329,113 330,114 331,115 332,116 333,115 334,114 335,113 336,112 337,111 338,110 339,109 340,110 341,109 342,110 343,109 344,108 345,109 346,108 347,107 348,108 349,107 350,108 351,109 352,108 353,109 354,108 355,107 356,106 357,107 358,106 359,107 360,106 361,107 362,108 363,109 364,110 365,111 366,112 367,111 368,112 369,111 370,110 371,109 372,110 373,109 374,108 375,107 376,106 377,107 378,106 379,105 380,104 381,103 382,104 383,103 384,102 385,103 386,102 387,103 388,102 389,103 390,102 391,101 392,100 393,99 394,98 395,97 396,96 397,95 398,96 399,95 400,200 "  style="fill:rgb(182,128,85);stroke:rgb(82,28,0)" ></polygon><polygon points="0,200 0,100 1,101 2,100 3,101 4,100 5,99 6,98 7,99 8,98 9,99 10,100 11,101 12,100 13,99 14,100 15,101 16,100 17,101 18,102 19,103 20,104 21,103 22,102 23,103 24,102 25,103 26,102 27,101 28,102 29,101 30,102 31,101 32,100 33,99 34,100 35,99 36,100 37,99 38,98 39,99 40,100 41,101 42,100 43,101 44,100 45,101 46,102 47,103 48,102 49,101 50,102 51,101 52,100 53,99 54,98 55,99 56,98 57,97 58,98 59,97 60,98 61,97 62,98 63,97 64,96 65,97 66,96 67,97 68,96 69,95 70,94 71,95 72,96 73,95 74,96 75,97 76,96 77,97 78,98 79,99 80,98 81,97 82,96 83,95 84,96 85,97 86,98 87,97 88,96 89,97 90,98 91,97 92,96 93,95 94,96 95,97 96,98 97,97 98,98 99,97 100,98 101,97 102,98 103,97 104,96 105,97 106,96 107,97 108,96 109,95 110,94 111,95 112,96 113,97 114,96 115,97 116,96 117,97 118,96 119,97 120,96 121,97 122,98 123,99 124,100 125,101 126,100 127,101 128,102 129,103 130,102 131,103 132,102 133,101 134,102 135,101 136,100 137,99 138,98 139,99 140,100 141,101 142,102 143,103 144,102 145,101 146,100 147,101 148,102 149,101 150,102 151,103 152,104 153,105 154,106 155,107 156,106 157,107 158,106 159,107 160,106 161,107 162,108 163,109 164,108 165,109 166,108 167,109 168,108 169,109 170,108 171,109 172,108 173,109 174,108 175,109 176,108 177,107 178,108 179,109 180,108 181,109 182,110 183,109 184,108 185,109 186,108 187,109 188,110 189,111 190,112 191,111 192,112 193,113 194,112 195,111 196,110 197,111 198,112 199,111 200,112 201,111 202,112 203,111 204,112 205,111 206,112 207,113 208,112 209,113 210,114 211,115 212,114 213,115 214,114 215,113 216,114 217,115 218,116 219,117 220,116 221,115 222,116 223,115 224,116 225,117 226,118 227,119 228,118 229,119 230,118 231,117 232,118 233,119 234,120 235,119 236,118 237,117 238,116 239,117 240,116 241,117 242,116 243,115 244,116 245,115 246,114 247,115 248,114 249,113 250,112 251,113 252,114 253,113 254,114 255,115 256,114 257,115 258,114 259,113 260,112 261,111 262,110 263,111 264,112 265,111 266,110 267,109 268,108 269,107 270,108 271,107 272,106 273,105 274,104 275,105 276,106 277,105 278,104 279,103 280,102 281,101 282,102 283,101 284,100 285,101 286,100 287,99 288,98 289,97 290,96 291,97 292,98 293,97 294,96 295,97 296,96 297,95 298,94 299,95 300,94 301,95 302,94 303,93 304,94 305,95 306,94 307,95 308,96 309,95 310,96 311,95 312,94 313,93 314,92 315,93 316,92 317,93 318,92 319,91 320,90 321,91 322,90 323,91 324,90 325,91 326,92 327,93 328,92 329,93 330,92 331,93 332,94 333,95 334,96 335,97 336,98 337,99 338,100 339,101 340,100 341,101 342,102 343,103 344,102 345,103 346,104 347,103 348,104 349,105 350,104 351,105 352,106 353,107 354,106 355,107 356,108 357,107 358,106 359,105 360,106 361,107 362,108 363,107 364,106 365,105 366,106 367,105 368,106 369,107 370,108 371,107 372,106 373,107 374,108 375,107 376,106 377,107 378,106 379,107 380,106 381,105 382,106 383,107 384,108 385,109 386,110 387,109 388,108 389,107 390,106 391,105 392,104 393,105 394,106 395,105 396,104 397,105 398,106 399,105 400,200 "  style="fill:rgb(71,115,201);stroke:rgb(0,15,101)" ></polygon><polygon points="0,200 0,100 1,99 2,100 3,101 4,100 5,101 6,100 7,101 8,102 9,101 10,100 11,101 12,102 13,103 14,102 15,103 16,102 17,101 18,102 19,101 20,102 21,103 22,102 23,103 24,102 25,101 26,102 27,103 28,104 29,103 30,104 31,103 32,102 33,103 34,104 35,105 36,106 37,105 38,106 39,107 40,108 41,109 42,108 43,107 44,108 45,109 46,110 47,109 48,110 49,111 50,112 51,111 52,110 53,109 54,108 55,109 56,110 57,109 58,108 59,109 60,108 61,109 62,108 63,107 64,108 65,109 66,110 67,109 68,110 69,111 70,112 71,113 72,112 73,113 74,114 75,113 76,114 77,115 78,114 79,115 80,116 81,115 82,114 83,113 84,112 85,113 86,112 87,113 88,112 89,113 90,112 91,111 92,112 93,111 94,110 95,111 96,112 97,111 98,110 99,111 100,112 101,111 102,110 103,111 104,112 105,113 106,114 107,113 108,114 109,115 110,116 111,117 112,118 113,117 114,118 115,119 116,120 117,119 118,118 119,119 120,120 121,121 122,120 123,121 124,120 125,119 126,118 127,117 128,118 129,117 130,118 131,119 132,120 133,119 134,118 135,119 136,120 137,121 138,120 139,121 140,122 141,123 142,124 143,123 144,122 145,123 146,124 147,125 148,126 149,127 150,126 151,127 152,126 153,125 154,126 155,125 156,124 157,125 158,124 159,125 160,126 161,125 162,126 163,127 164,128 165,127 166,126 167,125 168,126 169,127 170,126 171,127 172,128 173,129 174,130 175,129 176,128 177,129 178,130 179,131 180,132 181,133 182,132 183,133 184,132 185,133 186,134 187,135 188,134 189,135 190,134 191,133 192,134 193,135 194,136 195,135 196,136 197,135 198,134 199,135 200,136 201,137 202,136 203,137 204,136 205,135 206,136 207,135 208,134 209,135 210,136 211,135 212,134 213,133 214,132 215,131 216,132 217,133 218,132 219,133 220,132 221,133 222,132 223,133 224,132 225,133 226,132 227,133 228,134 229,133 230,134 231,133 232,132 233,133 234,134 235,135 236,136 237,135 238,134 239,135 240,134 241,133 242,134 243,133 244,132 245,133 246,132 247,131 248,130 249,129 250,130 251,131 252,130 253,131 254,130 255,129 256,130 257,131 258,132 259,131 260,132 261,133 262,132 263,133 264,132 265,133 266,134 267,135 268,134 269,135 270,134 271,135 272,134 273,133 274,132 275,133 276,134 277,133 278,134 279,135 280,134 281,133 282,134 283,135 284,134 285,133 286,132 287,133 288,132 289,133 290,132 291,131 292,130 293,129 294,128 295,129 296,130 297,129 298,130 299,131 300,132 301,131 302,132 303,131 304,130 305,131 306,130 307,129 308,128 309,129 310,130 311,129 312,130 313,129 314,128 315,129 316,128 317,129 318,130 319,131 320,132 321,133 322,132 323,133 324,132 325,133 326,132 327,131 328,130 329,129 330,130 331,131 332,132 333,131 334,130 335,131 336,130 337,129 338,128 339,129 340,128 341,127 342,126 343,125 344,126 345,127 346,126 347,125 348,124 349,125 350,126 351,125 352,126 353,127 354,128 355,129 356,128 357,127 358,128 359,129 360,128 361,127 362,128 363,129 364,128 365,129 366,128 367,129 368,128 369,127 370,128 371,127 372,128 373,129 374,130 375,131 376,130 377,131 378,130 379,131 380,132 381,133 382,134 383,135 384,134 385,135 386,136 387,137 388,136 389,135 390,134 391,135 392,136 393,137 394,138 395,137 396,138 397,137 398,138 399,137 400,200 "  style="fill:rgb(13,199,123);stroke:rgb(0,99,23)" ></polygon><polygon points="0,200 0,100 1,101 2,100 3,101 4,100 5,101 6,102 7,101 8,100 9,101 10,100 11,99 12,100 13,101 14,102 15,103 16,102 17,101 18,100 19,101 20,100 21,101 22,102 23,103 24,102 25,103 26,104 27,105 28,104 29,105 30,106 31,105 32,104 33,105 34,104 35,103 36,104 37,105 38,106 39,107 40,108 41,107 42,108 43,107 44,106 45,107 46,106 47,105 48,104 49,103 50,102 51,101 52,100 53,101 54,100 55,101 56,100 57,99 58,98 59,99 60,98 61,99 62,100 63,101 64,102 65,101 66,102 67,103 68,102 69,103 70,104 71,103 72,104 73,105 74,104 75,105 76,104 77,103 78,102 79,101 80,100 81,99 82,98 83,97 84,96 85,95 86,96 87,95 88,94 89,93 90,94 91,93 92,94 93,95 94,94 95,93 96,94 97,93 98,92 99,91 100,92 101,93 102,92 103,93 104,94 105,95 106,96 107,97 108,98 109,97 110,96 111,97 112,96 113,95 114,96 115,95 116,96 117,95 118,94 119,93 120,92 121,91 122,90 123,89 124,90 125,91 126,90 127,91 128,92 129,93 130,92 131,93 132,92 133,93 134,94 135,93 136,94 137,93 138,94 139,95 140,94 141,93 142,92 143,91 144,90 145,91 146,90 147,89 148,90 149,91 150,92 151,91 152,90 153,89 154,90 155,91 156,92 157,91 158,92 159,91 160,92 161,91 162,92 163,91 164,92 165,91 166,90 167,89 168,90 169,91 170,90 171,89 172,88 173,89 174,88 175,87 176,88 177,89 178,88 179,87 180,86 181,85 182,84 183,83 184,82 185,83 186,84 187,83 188,84 189,85 190,84 191,85 192,86 193,85 194,86 195,87 196,88 197,87 198,88 199,87 200,86 201,85 202,86 203,85 204,84 205,85 206,84 207,85 208,84 209,85 210,84 211,85 212,86 213,85 214,86 215,85 216,84 217,83 218,82 219,81 220,82 221,83 222,82 223,81 224,80 225,81 226,80 227,79 228,78 229,77 230,76 231,75 232,76 233,77 234,78 235,77 236,76 237,75 238,74 239,73 240,74 241,75 242,76 243,77 244,78 245,79 246,78 247,77 248,78 249,77 250,76 251,77 252,76 253,75 254,76 255,75 256,74 257,75 258,76 259,75 260,74 261,75 262,76 263,75 264,74 265,75 266,74 267,75 268,74 269,75 270,74 271,75 272,74 273,75 274,74 275,75 276,74 277,73 278,72 279,71 280,72 281,71 282,70 283,71 284,72 285,71 286,72 287,73 288,72 289,73 290,74 291,75 292,74 293,75 294,74 295,75 296,76 297,77 298,76 299,77 300,78 301,79 302,80 303,79 304,80 305,81 306,82 307,81 308,80 309,81 310,82 311,81 312,82 313,83 314,84 315,85 316,84 317,85 318,86 319,85 320,86 321,85 322,84 323,85 324,86 325,85 326,84 327,83 328,84 329,83 330,82 331,81 332,82 333,81 334,82 335,81 336,80 337,81 338,80 339,79 340,78 341,77 342,76 343,77 344,78 345,77 346,78 347,77 348,78 349,77 350,76 351,75 352,76 353,75 354,76 355,77 356,78 357,77 358,78 359,79 360,80 361,81 362,82 363,83 364,84 365,83 366,82 367,81 368,82 369,83 370,82 371,83 372,82 373,81 374,80 375,81 376,82 377,83 378,84 379,83 380,84 381,83 382,82 383,83 384,82 385,83 386,84 387,83 388,84 389,83 390,84 391,83 392,84 393,85 394,86 395,85 396,86 397,85 398,86 399,87 400,200 "  style="fill:rgb(128,210,22);stroke:rgb(28,110,0)" ></polygon><polygon points="0,200 0,100 1,99 2,98 3,99 4,100 5,101 6,100 7,101 8,102 9,103 10,104 11,105 12,106 13,107 14,106 15,105 16,104 17,103 18,104 19,105 20,106 21,107 22,108 23,107 24,108 25,107 26,108 27,109 28,110 29,109 30,108 31,107 32,106 33,105 34,104 35,105 36,106 37,107 38,106 39,107 40,106 41,107 42,106 43,105 44,106 45,105 46,104 47,103 48,102 49,103 50,104 51,103 52,102 53,101 54,102 55,103 56,102 57,103 58,104 59,103 60,102 61,101 62,100 63,99 64,100 65,99 66,98 67,99 68,100 69,101 70,102 71,101 72,100 73,101 74,102 75,103 76,102 77,103 78,104 79,105 80,104 81,105 82,106 83,105 84,106 85,107 86,106 87,105 88,106 89,107 90,106 91,107 92,106 93,105 94,104 95,105 96,106 97,105 98,106 99,107 100,106 101,105 102,104 103,105 104,106 105,107 106,106 107,107 108,106 109,105 110,106 111,105 112,104 113,105 114,104 115,105 116,104 117,103 118,102 119,101 120,100 121,101 122,102 123,103 124,102 125,103 126,102 127,101 128,102 129,103 130,102 131,103 132,104 133,103 134,102 135,103 136,102 137,103 138,104 139,105 140,106 141,107 142,108 143,107 144,106 145,107 146,106 147,105 148,104 149,105 150,106 151,105 152,104 153,103 154,102 155,101 156,102 157,103 158,102 159,103 160,104 161,103 162,102 163,103 164,104 165,103 166,104 167,103 168,104 169,105 170,104 171,105 172,106 173,105 174,104 175,105 176,104 177,103 178,104 179,103 180,102 181,103 182,102 183,103 184,104 185,103 186,102 187,101 188,102 189,101 190,100 191,101 192,100 193,101 194,100 195,101 196,100 197,99 198,100 199,99 200,98 201,97 202,98 203,99 204,100 205,99 206,98 207,97 208,96 209,95 210,94 211,95 212,94 213,95 214,94 215,93 216,92 217,91 218,90 219,91 220,90 221,91 222,90 223,89 224,90 225,89 226,90 227,91 228,90 229,89 230,90 231,91 232,90 233,89 234,90 235,91 236,90 237,91 238,90 239,89 240,90 241,89 242,90 243,91 244,90 245,91 246,92 247,91 248,92 249,93 250,92 251,91 252,92 253,93 254,94 255,93 256,94 257,93 258,92 259,91 260,92 261,91 262,90 263,89 264,88 265,89 266,88 267,89 268,90 269,89 270,88 271,89 272,90 273,89 274,88 275,89 276,90 277,91 278,90 279,89 280,90 281,91 282,90 283,89 284,90 285,89 286,90 287,89 288,90 289,89 290,90 291,89 292,88 293,87 294,86 295,85 296,84 297,83 298,84 299,85 300,84 301,83 302,82 303,83 304,82 305,81 306,82 307,81 308,80 309,79 310,80 311,79 312,80 313,79 314,78 315,79 316,78 317,79 318,80 319,81 320,80 321,79 322,80 323,79 324,78 325,77 326,78 327,79 328,78 329,77 330,76 331,77 332,78 333,79 334,80 335,81 336,82 337,83 338,82 339,81 340,82 341,83 342,82 343,81 344,80 345,81 346,80 347,79 348,80 349,79 350,80 351,81 352,82 353,81 354,80 355,81 356,82 357,83 358,84 359,85 360,86 361,87 362,88 363,87 364,88 365,89 366,88 367,89 368,90 369,89 370,90 371,89 372,88 373,87 374,88 375,89 376,90 377,89 378,88 379,89 380,88 381,89 382,90 383,89 384,88 385,89 386,88 387,89 388,88 389,89 390,90 391,91 392,90 393,91 394,92 395,93 396,92 397,93 398,94 399,95 400,200 "  style="fill:rgb(0,99,230);stroke:rgb(0,0,130)" ></polygon><polygon points="0,200 0,100 1,99 2,100 3,99 4,100 5,101 6,102 7,101 8,100 9,101 10,100 11,101 12,102 13,103 14,104 15,103 16,102 17,101 18,102 19,101 20,100 21,101 22,102 23,103 24,102 25,103 26,102 27,101 28,102 29,103 30,104 31,103 32,102 33,101 34,102 35,103 36,104 37,103 38,102 39,103 40,104 41,105 42,106 43,107 44,108 45,109 46,110 47,111 48,112 49,113 50,114 51,115 52,114 53,113 54,112 55,111 56,112 57,113 58,112 59,111 60,112 61,111 62,112 63,113 64,114 65,113 66,114 67,115 68,114 69,115 70,116 71,115 72,114 73,115 74,114 75,115 76,114 77,115 78,114 79,115 80,114 81,115 82,116 83,115 84,114 85,113 86,112 87,111 88,112 89,111 90,112 91,111 92,112 93,113 94,112 95,113 96,112 97,111 98,112 99,111 100,110 101,111 102,110 103,111 104,112 105,113 106,112 107,111 108,110 109,111 110,110 111,109 112,110 113,109 114,110 115,111 116,110 117,109 118,110 119,111 120,112 121,111 122,110 123,109 124,108 125,107 126,108 127,107 128,108 129,109 130,110 131,109 132,110 133,109 134,108 135,107 136,108 137,109 138,110 139,109 140,108 141,109 142,110 143,111 144,110 145,111 146,112 147,113 148,112 149,111 150,110 151,111 152,112 153,111 154,112 155,111 156,110 157,111 158,112 159,111 160,110 161,109 162,108 163,107 164,106 165,105 166,106 167,105 168,104 169,105 170,106 171,105 172,106 173,105 174,104 175,105 176,106 177,107 178,108 179,107 180,106 181,105 182,104 183,105 184,106 185,105 186,104 187,105 188,104 189,103 190,102 191,101 192,102 193,103 194,104 195,105 196,104 197,105 198,104 199,103 200,104 201,105 202,106 203,105 204,106 205,105 206,104 207,103 208,102 209,101 210,100 211,101 212,100 213,101 214,102 215,101 216,100 217,99 218,100 219,99 220,98 221,97 222,98 223,97 224,96 225,95 226,94 227,95 228,96 229,95 230,94 231,93 232,92 233,93 234,92 235,91 236,90 237,89 238,90 239,89 240,88 241,89 242,88 243,89 244,88 245,87 246,88 247,87 248,88 249,87 250,86 251,87 252,86 253,87 254,86 255,85 256,86 257,85 258,86 259,85 260,86 261,85 262,86 263,85 264,86 265,85 266,84 267,83 268,84 269,85 270,86 271,85 272,86 273,87 274,86 275,85 276,86 277,87 278,88 279,87 280,86 281,85 282,86 283,85 284,84 285,85 286,86 287,85 288,86 289,85 290,86 291,87 292,88 293,87 294,88 295,89 296,88 297,87 298,88 299,87 300,88 301,89 302,90 303,91 304,90 305,89 306,88 307,87 308,88 309,87 310,86 311,85 312,86 313,85 314,86 315,85 316,84 317,85 318,84 319,83 320,82 321,81 322,82 323,83 324,84 325,83 326,82 327,83 328,84 329,85 330,84 331,83 332,82 333,81 334,80 335,81 336,80 337,79 338,78 339,77 340,76 341,77 342,76 343,75 344,76 345,77 346,76 347,75 348,74 349,73 350,74 351,73 352,72 353,71 354,72 355,71 356,70 357,69 358,70 359,71 360,70 361,69 362,68 363,69 364,68 365,69 366,68 367,69 368,70 369,71 370,70 371,71 372,72 373,71 374,70 375,69 376,70 377,71 378,72 379,71 380,72 381,71 382,70 383,71 384,70 385,71 386,72 387,73 388,74 389,75 390,76 391,75 392,74 393,73 394,74 395,75 396,74 397,75 398,76 399,77 400,200 "  style="fill:rgb(228,98,107);stroke:rgb(128,0,7)" ></polygon><polygon points="0,200 0,100 1,101 2,102 3,101 4,100 5,101 6,102 7,103 8,102 9,103 10,102 11,101 12,102 13,103 14,102 15,101 16,100 17,101 18,102 19,101 20,100 21,101 22,102 23,101 24,102 25,103 26,102 27,101 28,102 29,103 30,102 31,101 32,100 33,99 34,98 35,97 36,96 37,97 38,96 39,95 40,96 41,97 42,96 43,97 44,98 45,99 46,100 47,101 48,102 49,103 50,104 51,105 52,106 53,107 54,108 55,109 56,108 57,109 58,108 59,109 60,108 61,109 62,110 63,111 64,112 65,113 66,112 67,113 68,114 69,113 70,112 71,111 72,110 73,111 74,110 75,111 76,110 77,109 78,108 79,107 80,106 81,105 82,106 83,107 84,106 85,107 86,108 87,107 88,106 89,105 90,104 91,105 92,106 93,105 94,104 95,105 96,104 97,103 98,102 99,101 100,102 101,101 102,102 103,101 104,102 105,103 106,102 107,103 108,102 109,103 110,102 111,103 112,104 113,105 114,106 115,105 116,104 117,103 118,102 119,101 120,102 121,103 122,102 123,103 124,102 125,103 126,104 127,105 128,106 129,107 130,106 131,107 132,106 133,105 134,104 135,105 136,104 137,105 138,104 139,103 140,104 141,105 142,104 143,105 144,104 145,103 146,104 147,103 148,104 149,103 150,102 151,101 152,102 153,103 154,104 155,103 156,104 157,105 158,104 159,105 160,104 161,103 162,104 163,103 164,104 165,105 166,106 167,107 168,106 169,107 170,106 171,105 172,104 173,103 174,102 175,103 176,102 177,103 178,104 179,103 180,104 181,103 182,102 183,103 184,104 185,103 186,102 187,103 188,102 189,103 190,104 191,105 192,106 193,107 194,108 195,107 196,108 197,109 198,110 199,109 200,108 201,109 202,110 203,109 204,110 205,111 206,110 207,111 208,112 209,113 210,114 211,113 212,114 213,115 214,114 215,115 216,114 217,113 218,112 219,113 220,114 221,113 222,112 223,113 224,112 225,111 226,110 227,109 228,108 229,107 230,108 231,107 232,106 233,105 234,106 235,105 236,104 237,103 238,104 239,105 240,106 241,105 242,104 243,103 244,102 245,103 246,102 247,101 248,100 249,99 250,98 251,99 252,98 253,97 254,98 255,99 256,98 257,97 258,98 259,97 260,98 261,99 262,98 263,97 264,96 265,95 266,94 267,93 268,94 269,95 270,94 271,93 272,94 273,95 274,94 275,93 276,92 277,91 278,92 279,91 280,90 281,91 282,92 283,93 284,94 285,93 286,94 287,95 288,94 289,95 290,96 291,95 292,96 293,97 294,98 295,99 296,100 297,99 298,100 299,99 300,98 301,99 302,100 303,101 304,100 305,101 306,100 307,99 308,100 309,99 310,98 311,97 312,98 313,99 314,98 315,99 316,100 317,101 318,100 319,99 320,98 321,99 322,98 323,99 324,98 325,97 326,98 327,97 328,96 329,97 330,98 331,97 332,98 333,99 334,98 335,97 336,96 337,95 338,96 339,95 340,94 341,93 342,94 343,95 344,96 345,95 346,96 347,95 348,96 349,97 350,98 351,97 352,96 353,97 354,96 355,95 356,94 357,93 358,94 359,95 360,96 361,97 362,96 363,95 364,96 365,97 366,96 367,97 368,96 369,95 370,96 371,97 372,96 373,97 374,96 375,97 376,96 377,97 378,96 379,97 380,98 381,97 382,96 383,95 384,96 385,95 386,94 387,93 388,94 389,93 390,94 391,93 392,92 393,91 394,92 395,93 396,92 397,93 398,94 399,95 400,200 "  style="fill:rgb(126,224,161);stroke:rgb(26,124,61)" ></polygon><polygon points="0,200 0,100 1,101 2,102 3,103 4,102 5,101 6,102 7,101 8,100 9,99 10,100 11,101 12,100 13,101 14,100 15,101 16,100 17,99 18,100 19,101 20,100 21,99 22,98 23,97 24,98 25,99 26,98 27,97 28,98 29,97 30,98 31,97 32,98 33,99 34,100 35,99 36,100 37,99 38,98 39,97 40,98 41,97 42,98 43,97 44,96 45,97 46,96 47,97 48,98 49,97 50,98 51,97 52,98 53,97 54,96 55,97 56,96 57,97 58,98 59,97 60,98 61,99 62,100 63,99 64,98 65,99 66,100 67,101 68,102 69,103 70,102 71,101 72,102 73,103 74,102 75,103 76,102 77,101 78,100 79,99 80,98 81,99 82,98 83,97 84,96 85,95 86,96 87,95 88,96 89,95 90,96 91,97 92,98 93,97 94,96 95,97 96,96 97,95 98,96 99,97 100,96 101,97 102,96 103,95 104,94 105,93 106,92 107,91 108,90 109,89 110,88 111,89 112,90 113,89 114,90 115,89 116,88 117,87 118,88 119,89 120,90 121,89 122,90 123,91 124,90 125,89 126,90 127,91 128,92 129,91 130,92 131,91 132,92 133,93 134,94 135,95 136,96 137,95 138,96 139,95 140,94 141,95 142,96 143,97 144,98 145,99 146,100 147,101 148,102 149,103 150,104 151,103 152,102 153,103 154,102 155,103 156,104 157,103 158,102 159,103 160,104 161,105 162,106 163,105 164,104 165,103 166,104 167,105 168,106 169,107 170,106 171,107 172,108 173,107 174,106 175,105 176,104 177,103 178,102 179,103 180,104 181,103 182,102 183,101 184,102 185,101 186,102 187,101 188,100 189,101 190,100 191,99 192,100 193,99 194,100 195,99 196,100 197,99 198,100 199,101 200,100 201,101 202,100 203,99 204,100 205,101 206,100 207,99 208,98 209,99 210,98 211,97 212,98 213,99 214,98 215,99 216,100 217,99 218,98 219,97 220,98 221,97 222,96 223,95 224,94 225,95 226,94 227,95 228,96 229,97 230,98 231,97 232,96 233,97 234,96 235,97 236,98 237,99 238,100 239,99 240,98 241,97 242,96 243,95 244,96 245,95 246,96 247,97 248,98 249,97 250,96 251,97 252,98 253,99 254,100 255,101 256,102 257,103 258,102 259,103 260,104 261,105 262,106 263,105 264,104 265,103 266,102 267,101 268,102 269,103 270,104 271,105 272,106 273,107 274,108 275,107 276,106 277,105 278,106 279,107 280,106 281,105 282,106 283,105 284,106 285,107 286,106 287,105 288,104 289,105 290,104 291,103 292,102 293,103 294,102 295,103 296,104 297,103 298,102 299,103 300,104 301,103 302,102 303,103 304,104 305,105 306,106 307,107 308,108 309,107 310,108 311,107 312,108 313,107 314,108 315,107 316,108 317,107 318,106 319,107 320,108 321,107 322,106 323,107 324,108 325,107 326,108 327,107 328,108 329,109 330,110 331,109 332,110 333,111 334,112 335,111 336,110 337,109 338,108 339,107 340,108 341,107 342,106 343,105 344,104 345,105 346,106 347,107 348,108 349,107 350,106 351,105 352,106 353,107 354,106 355,107 356,108 357,107 358,106 359,105 360,104 361,103 362,104 363,105 364,106 365,107 366,108 367,109 368,110 369,109 370,110 371,111 372,112 373,111 374,112 375,111 376,110 377,111 378,110 379,111 380,110 381,109 382,108 383,109 384,108 385,109 386,110 387,109 388,110 389,109 390,110 391,111 392,112 393,111 394,112 395,113 396,114 397,115 398,114 399,115 400,200 "  style="fill:rgb(74,3,140);stroke:rgb(0,0,40)" ></polygon><polygon points="0,200 0,100 1,99 2,100 3,99 4,98 5,99 6,100 7,99 8,100 9,101 10,102 11,101 12,100 13,101 14,102 15,101 16,102 17,103 18,104 19,105 20,106 21,107 22,108 23,107 24,106 25,105 26,106 27,105 28,104 29,103 30,104 31,103 32,102 33,103 34,102 35,103 36,102 37,101 38,100 39,101 40,100 41,99 42,100 43,101 44,102 45,101 46,102 47,101 48,100 49,99 50,100 51,101 52,102 53,101 54,100 55,99 56,98 57,97 58,98 59,97 60,96 61,95 62,96 63,95 64,96 65,95 66,96 67,97 68,96 69,97 70,96 71,95 72,94 73,95 74,96 75,97 76,98 77,99 78,100 79,101 80,102 81,101 82,100 83,101 84,102 85,101 86,102 87,103 88,102 89,101 90,100 91,101 92,100 93,99 94,100 95,99 96,98 97,99 98,98 99,97 100,96 101,95 102,96 103,95 104,96 105,97 106,98 107,99 108,98 109,97 110,96 111,97 112,98 113,99 114,98 115,99 116,98 117,97 118,96 119,97 120,98 121,97 122,96 123,97 124,98 125,99 126,98 127,97 128,96 129,97 130,96 131,97 132,96 133,95 134,96 135,97 136,96 137,97 138,98 139,97 140,98 141,99 142,100 143,99 144,100 145,99 146,98 147,97 148,98 149,97 150,96 151,97 152,98 153,97 154,96 155,97 156,98 157,99 158,98 159,99 160,100 161,99 162,98 163,97 164,98 165,97 166,98 167,97 168,96 169,97 170,96 171,95 172,94 173,93 174,92 175,93 176,94 177,93 178,94 179,95 180,96 181,97 182,96 183,95 184,96 185,95 186,96 187,97 188,98 189,97 190,98 191,97 192,98 193,99 194,98 195,99 196,100 197,101 198,100 199,101 200,102 201,103 202,104 203,105 204,106 205,105 206,106 207,107 208,108 209,109 210,110 211,109 212,110 213,109 214,108 215,109 216,108 217,107 218,108 219,109 220,110 221,111 222,112 223,113 224,114 225,115 226,114 227,113 228,112 229,113 230,112 231,111 232,112 233,111 234,112 235,111 236,110 237,111 238,112 239,111 240,112 241,111 242,112 243,113 244,112 245,113 246,112 247,111 248,110 249,109 250,108 251,109 252,110 253,111 254,112 255,111 256,112 257,111 258,112 259,113 260,114 261,113 262,112 263,111 264,112 265,113 266,112 267,111 268,112 269,111 270,112 271,113 272,114 273,115 274,114 275,115 276,116 277,115 278,114 279,115 280,116 281,117 282,118 283,119 284,118 285,117 286,116 287,115 288,116 289,115 290,114 291,113 292,114 293,113 294,114 295,113 296,112 297,111 298,110 299,111 300,110 301,109 302,110 303,111 304,112 305,111 306,110 307,111 308,110 309,111 310,110 311,111 312,112 313,113 314,114 315,115 316,116 317,117 318,116 319,115 320,116 321,115 322,116 323,115 324,114 325,113 326,114 327,113 328,112 329,113 330,114 331,115 332,114 333,115 334,116 335,115 336,114 337,113 338,114 339,115 340,116 341,115 342,114 343,113 344,114 345,115 346,114 347,113 348,112 349,111 350,110 351,111 352,112 353,111 354,110 355,111 356,112 357,113 358,112 359,111 360,112 361,113 362,112 363,113 364,114 365,115 366,114 367,113 368,112 369,111 370,112 371,113 372,114 373,115 374,114 375,115 376,114 377,115 378,114 379,113 380,114 381,115 382,114 383,113 384,114 385,115 386,114 387,113 388,112 389,113 390,114 391,113 392,112 393,113 394,112 395,113 396,112 397,113 398,112 399,113 400,200 "  style="fill:rgb(31,245,144);stroke:rgb(0,145,44)" ></polygon><polygon points="0,200 0,100 1,101 2,100 3,101 4,102 5,101 6,102 7,101 8,102 9,103 10,104 11,103 12,102 13,101 14,100 15,99 16,100 17,101 18,102 19,101 20,100 21,99 22,100 23,101 24,100 25,99 26,100 27,99 28,98 29,97 30,96 31,95 32,96 33,97 34,96 35,95 36,94 37,93 38,92 39,91 40,90 41,91 42,92 43,91 44,90 45,89 46,88 47,87 48,86 49,85 50,86 51,87 52,86 53,87 54,88 55,89 56,90 57,91 58,92 59,93 60,92 61,91 62,90 63,89 64,88 65,89 66,88 67,89 68,88 69,89 70,90 71,89 72,88 73,89 74,90 75,89 76,88 77,87 78,86 79,85 80,86 81,87 82,88 83,87 84,88 85,89 86,88 87,89 88,90 89,91 90,92 91,93 92,94 93,95 94,94 95,93 96,94 97,93 98,92 99,93 100,94 101,95 102,96 103,95 104,96 105,97 106,98 107,97 108,96 109,97 110,98 111,99 112,98 113,97 114,98 115,99 116,100 117,101 118,102 119,101 120,102 121,101 122,102 123,101 124,100 125,101 126,100 127,101 128,102 129,101 130,100 131,99 132,98 133,97 134,96 135,95 136,94 137,93 138,92 139,93 140,94 141,95 142,94 143,93 144,94 145,93 146,94 147,93 148,92 149,91 150,90 151,89 152,88 153,89 154,90 155,91 156,92 157,93 158,94 159,95 160,96 161,95 162,96 163,95 164,94 165,93 166,92 167,91 168,92 169,93 170,94 171,95 172,94 173,93 174,94 175,95 176,96 177,97 178,98 179,97 180,98 181,97 182,98 183,97 184,98 185,99 186,98 187,99 188,98 189,97 190,98 191,97 192,98 193,99 194,98 195,97 196,96 197,95 198,96 199,97 200,96 201,95 202,94 203,93 204,94 205,95 206,94 207,93 208,92 209,93 210,92 211,93 212,94 213,95 214,96 215,95 216,94 217,95 218,94 219,93 220,94 221,93 222,92 223,91 224,92 225,93 226,94 227,95 228,94 229,95 230,94 231,95 232,96 233,97 234,98 235,99 236,98 237,99 238,98 239,97 240,98 241,99 242,98 243,97 244,96 245,95 246,96 247,95 248,96 249,97 250,96 251,95 252,94 253,93 254,94 255,93 256,92 257,91 258,90 259,91 260,90 261,91 262,90 263,91 264,90 265,89 266,90 267,91 268,90 269,89 270,90 271,89 272,90 273,89 274,90 275,89 276,88 277,87 278,88 279,87 280,88 281,89 282,90 283,89 284,90 285,89 286,90 287,91 288,92 289,93 290,92 291,91 292,92 293,93 294,94 295,93 296,94 297,95 298,96 299,95 300,94 301,93 302,92 303,91 304,90 305,89 306,88 307,89 308,88 309,89 310,90 311,89 312,88 313,87 314,88 315,89 316,90 317,89 318,88 319,89 320,90 321,91 322,92 323,93 324,94 325,95 326,94 327,93 328,94 329,93 330,92 331,93 332,92 333,93 334,92 335,91 336,90 337,89 338,88 339,89 340,90 341,91 342,90 343,89 344,90 345,89 346,88 347,89 348,88 349,89 350,90 351,91 352,92 353,91 354,90 355,91 356,92 357,93 358,92 359,93 360,92 361,93 362,94 363,95 364,94 365,93 366,94 367,95 368,96 369,95 370,96 371,97 372,98 373,99 374,100 375,101 376,102 377,101 378,100 379,99 380,100 381,99 382,98 383,97 384,96 385,95 386,94 387,93 388,92 389,93 390,94 391,93 392,92 393,93 394,94 395,93 396,94 397,93 398,94 399,93 400,200 "  style="fill:rgb(30,186,157);stroke:rgb(0,86,57)" ></polygon></svg>